<svg xmlns="http://www.w3.org/2000/svg" viewBox="0 0 1921 1781.51"><defs><style>.cls-1,.cls-10,.cls-5{opacity:0.5;}.cls-2{fill:aqua;}.cls-3{fill:#ff0;}.cls-4{fill:#f0f;}.cls-10,.cls-5{font-size:72px;font-family:MyriadPro-Regular, Myriad Pro;}.cls-6{letter-spacing:0em;}.cls-7{letter-spacing:0em;}.cls-8{letter-spacing:0em;}.cls-9{letter-spacing:-0.01em;}.cls-10{letter-spacing:0.01em;}.cls-11{letter-spacing:0em;}.cls-12{letter-spacing:0.01em;}.cls-13{letter-spacing:0em;}.cls-14{letter-spacing:-0.01em;}.cls-15{letter-spacing:-0.01em;}.cls-16{letter-spacing:0.01em;}.cls-17{letter-spacing:0.01em;}.cls-18{letter-spacing:-0.01em;}</style></defs><title>skaalautuva-kuva</title><g id="Layer_1" data-name="Layer 1"><g class="cls-1"><circle class="cls-2" cx="561.77" cy="574.23" r="561.77"/></g><g class="cls-1"><circle class="cls-3" cx="959.95" cy="1219.74" r="561.77"/></g><g class="cls-1"><circle class="cls-4" cx="1359.23" cy="574.23" r="561.77"/></g></g><g id="Layer_2" data-name="Layer 2"><text class="cls-5" transform="translate(842.3 1328.07)">Obsession</text><text class="cls-5" transform="translate(1182.55 942.07)"><tspan class="cls-6">D</tspan><tspan class="cls-7" x="48.24" y="0">o</tspan><tspan class="cls-6" x="87.77" y="0">r</tspan><tspan x="111.6" y="0">k</tspan></text><text class="cls-5" transform="translate(646.21 942.54)"><tspan class="cls-8">G</tspan><tspan x="46.87" y="0">eek</tspan></text><text class="cls-5" transform="translate(900.26 795.33)">Ne<tspan class="cls-9" x="83.45" y="0">r</tspan><tspan x="106.27" y="0">d</tspan></text><text class="cls-10" transform="translate(854.53 531.01)">D<tspan class="cls-9" x="48.96" y="0">w</tspan><tspan class="cls-11" x="101.23" y="0">eeb</tspan></text><g class="cls-1"><path d="M894.45,111.54A4.5,4.5,0,1,0,890,107a4.55,4.55,0,0,0,4.5,4.5Z" transform="translate(-40 -102.54)"/></g><text class="cls-5" transform="translate(186.57 573.84)"><tspan class="cls-12">I</tspan><tspan class="cls-13" x="17.93" y="0">n</tspan><tspan class="cls-14" x="57.6" y="0">t</tspan><tspan x="81" y="0">elligen</tspan><tspan class="cls-15" x="284.18" y="0">c</tspan><tspan class="cls-11" x="316" y="0">e</tspan></text><text class="cls-5" transform="translate(1264.77 573.8)"><tspan class="cls-16">S</tspan><tspan x="35.93" y="0">ocial </tspan><tspan class="cls-17" x="191.52" y="0">I</tspan><tspan class="cls-7" x="209.44" y="0">neptitu</tspan><tspan class="cls-18" x="430.63" y="0">t</tspan><tspan x="454.02" y="0">e</tspan></text></g></svg>